<svg xmlns="http://www.w3.org/2000/svg" xmlns:xlink="http://www.w3.org/1999/xlink" viewBox="0 0 24 24"><defs><path d="M4.293 1.707A1 1 0 0 1 5.707.293l2 2a1 1 0 0 1-1.414 1.414l-2-2ZM0 8h16v2H0V8Z" id="a"/><path d="m11 9.586 2.293-2.293a1 1 0 0 1 1.414 1.414l-4 4a1 1 0 0 1-1.414 0l-4-4a1 1 0 0 1 1.414-1.414L9 9.586V.999a1 1 0 0 1 2 0v8.587ZM18 16v-6a1 1 0 0 1 2 0v7a1 1 0 0 1-1 1H1a1 1 0 0 1-1-1v-7a1 1 0 1 1 2 0v6h16Z" id="c"/></defs><g fill="none" fill-rule="evenodd" transform="translate(2 3)"><g transform="translate(2 6)"><mask fill="#fff" id="b"><use xlink:href="#a"/></mask><use xlink:href="#a" fill="#D8D8D8" fill-rule="nonzero"/><g fill="#FFA0A0" mask="url(#b)"><path d="M-4-9h24v24H-4z"/></g></g><mask fill="#fff" id="d"><use xlink:href="#c"/></mask><use xlink:href="#c" fill="#000" fill-rule="nonzero"/><g fill="#7600FF" mask="url(#d)"><path d="M-2-3h24v24H-2z"/></g></g></svg>